<svg xmlns="http://www.w3.org/2000/svg" width="600" height="300" viewBox="0 0 600 300">
  <defs>
    <linearGradient id="bg" x1="0" y1="0" x2="1" y2="1">
      <stop offset="0%" stop-color="#F4F7F6"/>
      <stop offset="100%" stop-color="#E6F5F3"/>
    </linearGradient>
  </defs>
  <rect width="600" height="300" fill="url(#bg)" rx="12"/>
  <!-- Title -->
  <text x="30" y="35" fill="#1C2328" font-family="sans-serif" font-size="16" font-weight="bold">My Clients</text>
  <!-- Search bar -->
  <rect x="30" y="48" width="540" height="32" fill="#fff" rx="6" stroke="#D9E2E0" stroke-width="1"/>
  <text x="50" y="69" fill="#5E6A71" font-family="sans-serif" font-size="11">Search clients...</text>
  <!-- Client cards -->
  <rect x="30" y="95" width="260" height="90" fill="#fff" rx="8" stroke="#D9E2E0" stroke-width="1"/>
  <circle cx="65" cy="130" r="20" fill="#A8C9BE"/>
  <text x="65" y="135" text-anchor="middle" fill="#fff" font-family="sans-serif" font-size="14" font-weight="bold">A</text>
  <rect x="95" y="115" width="100" height="10" fill="#1C2328" rx="3" opacity="0.7"/>
  <rect x="95" y="132" width="70" height="8" fill="#5E6A71" rx="2" opacity="0.4"/>
  <rect x="95" y="148" width="50" height="16" fill="#E6F5F3" rx="4"/>
  <text x="120" y="160" text-anchor="middle" fill="#1F8A83" font-family="sans-serif" font-size="8">Active</text>
  <circle cx="260" cy="125" r="6" fill="#10B981"/>

  <rect x="310" y="95" width="260" height="90" fill="#fff" rx="8" stroke="#D9E2E0" stroke-width="1"/>
  <circle cx="345" cy="130" r="20" fill="#1F8A83"/>
  <text x="345" y="135" text-anchor="middle" fill="#fff" font-family="sans-serif" font-size="14" font-weight="bold">M</text>
  <rect x="375" y="115" width="110" height="10" fill="#1C2328" rx="3" opacity="0.7"/>
  <rect x="375" y="132" width="80" height="8" fill="#5E6A71" rx="2" opacity="0.4"/>
  <rect x="375" y="148" width="50" height="16" fill="#E6F5F3" rx="4"/>
  <text x="400" y="160" text-anchor="middle" fill="#1F8A83" font-family="sans-serif" font-size="8">Active</text>
  <circle cx="540" cy="125" r="6" fill="#10B981"/>

  <rect x="30" y="200" width="260" height="90" fill="#fff" rx="8" stroke="#D9E2E0" stroke-width="1"/>
  <circle cx="65" cy="235" r="20" fill="#163A43"/>
  <text x="65" y="240" text-anchor="middle" fill="#fff" font-family="sans-serif" font-size="14" font-weight="bold">S</text>
  <rect x="95" y="220" width="90" height="10" fill="#1C2328" rx="3" opacity="0.7"/>
  <rect x="95" y="237" width="60" height="8" fill="#5E6A71" rx="2" opacity="0.4"/>
  <rect x="95" y="253" width="65" height="16" fill="#FEF3C7" rx="4"/>
  <text x="127" y="265" text-anchor="middle" fill="#92400E" font-family="sans-serif" font-size="8">Pending</text>

  <rect x="310" y="200" width="260" height="90" fill="#fff" rx="8" stroke="#D9E2E0" stroke-width="1"/>
  <circle cx="345" cy="235" r="20" fill="#7C7CF4"/>
  <text x="345" y="240" text-anchor="middle" fill="#fff" font-family="sans-serif" font-size="14" font-weight="bold">K</text>
  <rect x="375" y="220" width="120" height="10" fill="#1C2328" rx="3" opacity="0.7"/>
  <rect x="375" y="237" width="75" height="8" fill="#5E6A71" rx="2" opacity="0.4"/>
  <rect x="375" y="253" width="50" height="16" fill="#E6F5F3" rx="4"/>
  <text x="400" y="265" text-anchor="middle" fill="#1F8A83" font-family="sans-serif" font-size="8">Active</text>
  <circle cx="540" cy="230" r="6" fill="#10B981"/>
</svg>
