<svg xmlns="http://www.w3.org/2000/svg" width="600" height="300" viewBox="0 0 600 300">
  <defs>
    <linearGradient id="bg" x1="0" y1="0" x2="1" y2="1">
      <stop offset="0%" stop-color="#F4F7F6"/>
      <stop offset="100%" stop-color="#E6F5F3"/>
    </linearGradient>
  </defs>
  <rect width="600" height="300" fill="url(#bg)" rx="12"/>
  <!-- Client header -->
  <rect x="30" y="20" width="540" height="70" fill="#fff" rx="8" stroke="#D9E2E0" stroke-width="1"/>
  <circle cx="75" cy="55" r="22" fill="#1F8A83"/>
  <text x="75" y="61" text-anchor="middle" fill="#fff" font-family="sans-serif" font-size="16" font-weight="bold">JD</text>
  <rect x="110" y="40" width="140" height="12" fill="#1C2328" rx="3" opacity="0.7"/>
  <rect x="110" y="60" width="100" height="8" fill="#5E6A71" rx="2" opacity="0.4"/>
  <rect x="480" y="40" width="70" height="24" fill="#E6F5F3" rx="5"/>
  <text x="515" y="56" text-anchor="middle" fill="#1F8A83" font-family="sans-serif" font-size="9">Consented</text>
  <!-- Tabs -->
  <rect x="30" y="105" width="80" height="28" fill="#1F8A83" rx="6"/>
  <text x="70" y="123" text-anchor="middle" fill="#fff" font-family="sans-serif" font-size="10">Overview</text>
  <rect x="118" y="105" width="80" height="28" fill="#fff" rx="6" stroke="#D9E2E0" stroke-width="1"/>
  <text x="158" y="123" text-anchor="middle" fill="#5E6A71" font-family="sans-serif" font-size="10">Sessions</text>
  <rect x="206" y="105" width="70" height="28" fill="#fff" rx="6" stroke="#D9E2E0" stroke-width="1"/>
  <text x="241" y="123" text-anchor="middle" fill="#5E6A71" font-family="sans-serif" font-size="10">Diary</text>
  <rect x="284" y="105" width="80" height="28" fill="#fff" rx="6" stroke="#D9E2E0" stroke-width="1"/>
  <text x="324" y="123" text-anchor="middle" fill="#5E6A71" font-family="sans-serif" font-size="10">Exercises</text>
  <rect x="372" y="105" width="60" height="28" fill="#fff" rx="6" stroke="#D9E2E0" stroke-width="1"/>
  <text x="402" y="123" text-anchor="middle" fill="#5E6A71" font-family="sans-serif" font-size="10">Notes</text>
  <rect x="440" y="105" width="70" height="28" fill="#fff" rx="6" stroke="#D9E2E0" stroke-width="1"/>
  <text x="475" y="123" text-anchor="middle" fill="#5E6A71" font-family="sans-serif" font-size="10">Context</text>
  <!-- Profile content -->
  <rect x="30" y="148" width="260" height="135" fill="#fff" rx="8" stroke="#D9E2E0" stroke-width="1"/>
  <text x="45" y="170" fill="#1C2328" font-family="sans-serif" font-size="11" font-weight="bold">Anamnesis</text>
  <rect x="45" y="180" width="200" height="7" fill="#E6F5F3" rx="2"/>
  <rect x="45" y="193" width="180" height="7" fill="#E6F5F3" rx="2"/>
  <rect x="45" y="206" width="220" height="7" fill="#E6F5F3" rx="2"/>
  <text x="45" y="232" fill="#1C2328" font-family="sans-serif" font-size="11" font-weight="bold">Goals</text>
  <rect x="45" y="242" width="190" height="7" fill="#E6F5F3" rx="2"/>
  <rect x="45" y="255" width="170" height="7" fill="#E6F5F3" rx="2"/>
  <rect x="45" y="268" width="150" height="7" fill="#E6F5F3" rx="2"/>
  <!-- Stats panel -->
  <rect x="310" y="148" width="260" height="135" fill="#fff" rx="8" stroke="#D9E2E0" stroke-width="1"/>
  <text x="325" y="170" fill="#1C2328" font-family="sans-serif" font-size="11" font-weight="bold">Quick Stats</text>
  <text x="325" y="195" fill="#5E6A71" font-family="sans-serif" font-size="10">Sessions completed</text>
  <text x="540" y="195" text-anchor="end" fill="#1F8A83" font-family="sans-serif" font-size="12" font-weight="bold">8</text>
  <line x1="325" y1="203" x2="555" y2="203" stroke="#E6F5F3" stroke-width="1"/>
  <text x="325" y="220" fill="#5E6A71" font-family="sans-serif" font-size="10">Diary entries</text>
  <text x="540" y="220" text-anchor="end" fill="#1F8A83" font-family="sans-serif" font-size="12" font-weight="bold">24</text>
  <line x1="325" y1="228" x2="555" y2="228" stroke="#E6F5F3" stroke-width="1"/>
  <text x="325" y="245" fill="#5E6A71" font-family="sans-serif" font-size="10">Exercises assigned</text>
  <text x="540" y="245" text-anchor="end" fill="#1F8A83" font-family="sans-serif" font-size="12" font-weight="bold">5</text>
  <line x1="325" y1="253" x2="555" y2="253" stroke="#E6F5F3" stroke-width="1"/>
  <text x="325" y="270" fill="#5E6A71" font-family="sans-serif" font-size="10">SOS alerts</text>
  <text x="540" y="270" text-anchor="end" fill="#DC2626" font-family="sans-serif" font-size="12" font-weight="bold">1</text>
</svg>
